DataType=double
version=3
OpenSimVersion=4.2
endheader
time	ground_force_r_vx	ground_force_r_vy	ground_force_r_vz	ground_force_r_px	ground_force_r_py	ground_force_r_pz	ground_force_l_vx	ground_force_l_vy	ground_force_l_vz	ground_force_l_px	ground_force_l_py	ground_force_l_pz	ground_torque_r_x	ground_torque_r_y	ground_torque_r_z	ground_torque_l_x	ground_torque_l_y	ground_torque_l_z
0.868	-26.07156048872337	4.060771612580563	0	0	0	0	0	0	0	0	0	0	0	0	-0.8533278861204869	0	0	0
0.8690777155066456	-37.67833937511337	6.037031227810294	0	0	0	0	0	0	0	0	0	0	0	0	-1.206815072370953	0	0	0
0.8701554310132912	-52.91466111668049	8.642912266791312	0	0	0	0	0	0	0	0	0	0	0	0	-1.664289960438651	0	0	0
0.8712331465199368	-72.37200492711844	12.00437605737501	0	0	0	0	0	0	0	0	0	0	0	0	-2.23870957271895	0	0	0
0.8723108620265824	-96.1634184004714	16.1828912551519	0	0	0	0	0	0	0	0	0	0	0	0	-2.927631978558076	0	0	0
0.8733885775332281	-124.0249581211863	21.19825979649797	0	0	0	0	0	0	0	0	0	0	0	0	-3.716727764499575	0	0	0
0.8744662930398737	-155.2332947525167	27.00360261524161	0	0	0	0	0	0	0	0	0	0	0	0	-4.578989513300431	0	0	0
0.8755440085465193	-188.5516965936471	33.473832095506	0	0	0	0	0	0	0	0	0	0	0	0	-5.473887016357159	0	0	0
0.8766217240531649	-222.69658545441	40.46517530830945	0	0	0	0	0	0	0	0	0	0	0	0	-6.362254663339224	0	0	0
0.8776994395598104	-256.6981172563953	47.88005426957072	0	0	0	0	0	0	0	0	0	0	0	0	-7.216212183464496	0	0	0
0.878777155066456	-290.7303765000569	55.82649911485164	0	0	0	0	0	0	0	0	0	0	0	0	-8.041214439472132	0	0	0
0.8798548705731016	-327.049148061882	64.84228589328148	0	0	0	0	0	0	0	0	0	0	0	0	-8.898875167541092	0	0	0
0.8809325860797472	-370.0016015032685	76.01407539471457	0	0	0	0	0	0	0	0	0	0	0	0	-9.901972563548451	0	0	0
0.8820103015863928	-425.3673816587412	90.98219760671695	0	0	0	0	0	0	0	0	0	0	0	0	-11.1928256401654	0	0	0
0.8830880170930384	-497.8664891991874	111.6235260768951	0	0	0	0	0	0	0	0	0	0	0	0	-12.87678673086041	0	0	0
0.8841657325996841	-588.1155323171848	139.5212337174801	0	0	0	0	0	0	0	0	0	0	0	0	-14.95362622018074	0	0	0
0.8852434481063297	-692.8699118399313	176.053952823301	0	0	0	0	0	0	0	0	0	0	0	0	-17.35671668339065	0	0	0
0.8863211636129753	-813.1197486779959	224.675940257176	0	0	0	0	0	0	0	0	0	0	0	0	-20.22191571744427	0	0	0
0.8873988791196209	-972.9882915671451	298.3293113087549	0	0	0	0	0	0	0	0	0	0	0	0	-24.42315303620346	0	0	0
0.8884765946262665	-1224.781039266685	429.9147208088883	0	0	0	0	0	0	0	0	0	0	0	0	-31.39390897274843	0	0	0
0.8895543101329121	-1559.065265804269	657.8969416407301	0	0	0	0	0	0	0	0	0	0	0	0	-39.64131084085994	0	0	0
0.8906320256395577	-2375.923529331134	1340.256834634848	0	0	0	0	0	0	0	0	0	0	0	0	-56.52872297773189	0	0	0
0.8917097411462033	-2654.181657063717	2228.152287708096	0	0	0	0	0	0	0	0	0	0	0	0	-48.34609066190976	0	0	0
0.8927874566528489	-1505.112062472654	1988.577321274221	0	0	0	0	0	0	0	0	0	0	0	0	-11.72011171712076	0	0	0
0.8938651721594946	-357.7515355946821	1240.182240934407	0	0	0	0	0	0	0	0	0	0	0	0	13.382567178828	0	0	0
0.8949428876661402	-187.2733865555959	905.5990553995066	0	0	0	0	0	0	0	0	0	0	0	0	12.26619256418183	0	0	0
0.8960206031727858	-51.43458932045984	784.4402660803453	0	0	0	0	0	0	0	0	0	0	0	0	13.94004017214776	0	0	0
0.8970983186794314	-52.46834465162901	674.3919789815072	0	0	0	0	0	0	0	0	0	0	0	0	11.26265832991768	0	0	0
0.8981760341860769	-23.9404606769696	645.4168491878305	0	0	0	0	0	0	0	0	0	0	0	0	11.4231783070852	0	0	0
0.8992537496927225	-23.61734175129567	635.6696332741969	0	0	0	0	0	0	0	0	0	0	0	0	11.2337348149763	0	0	0
0.9003314651993681	-8.91274139787196	637.5548708597001	0	0	0	0	0	0	0	0	0	0	0	0	11.75499031304292	0	0	0
0.9014091807060137	-0.4651187023529111	641.2220254336114	0	0	0	0	0	0	0	0	0	0	0	0	12.09228011064191	0	0	0
0.9024868962126593	14.8560903087207	666.2339057020326	0	0	0	0	0	0	0	0	0	0	0	0	13.06619626661301	0	0	0
0.903564611719305	13.90747124108067	708.4642416958453	0	0	0	0	0	0	0	0	0	0	0	0	13.79754578900075	0	0	0
0.9046423272259506	-15.04270423884226	769.0762056900782	0	0	0	0	0	0	0	0	0	0	0	0	13.89610809505787	0	0	0
0.9057200427325962	-71.85591751683437	845.9006170782163	0	0	0	0	0	0	0	0	0	0	0	0	13.31802298947684	0	0	0
0.9067977582392418	-136.9468712991698	932.3447234255627	0	0	0	0	0	0	0	0	0	0	0	0	12.61390321269296	0	0	0
0.9078754737458874	-199.3885275857461	1021.118552403566	0	0	0	0	0	0	0	0	0	0	0	0	12.02681468580929	0	0	0
0.908953189252533	-253.8774271230271	1110.258205973043	0	0	0	0	0	0	0	0	0	0	0	0	11.70637406115556	0	0	0
0.9100309047591786	-297.5840550320665	1197.431252940776	0	0	0	0	0	0	0	0	0	0	0	0	11.71005666852824	0	0	0
0.9111086202658242	-328.7637896690734	1281.556968006495	0	0	0	0	0	0	0	0	0	0	0	0	12.08063427005183	0	0	0
0.9121863357724698	-348.4832856622285	1362.09721518123	0	0	0	0	0	0	0	0	0	0	0	0	12.77270189310911	0	0	0
0.9132640512791154	-358.7326052365597	1440.019804892694	0	0	0	0	0	0	0	0	0	0	0	0	13.73574909596645	0	0	0
0.914341766785761	-361.2651367400542	1515.889481676458	0	0	0	0	0	0	0	0	0	0	0	0	14.91958473812137	0	0	0
0.9154194822924067	-357.3147819540173	1590.234665664877	0	0	0	0	0	0	0	0	0	0	0	0	16.29101152186793	0	0	0
0.9164971977990523	-347.780876553732	1663.17864090807	0	0	0	0	0	0	0	0	0	0	0	0	17.82083028637211	0	0	0
0.9175749133056978	-334.0233341808078	1735.968112589979	0	0	0	0	0	0	0	0	0	0	0	0	19.48382149058668	0	0	0
0.9186526288123434	-314.742291658325	1808.169924148897	0	0	0	0	0	0	0	0	0	0	0	0	21.31631644472661	0	0	0
0.919730344318989	-291.2131968153615	1879.558633046363	0	0	0	0	0	0	0	0	0	0	0	0	23.26903803469354	0	0	0
0.9208080598256346	-265.8154102501535	1950.824078499817	0	0	0	0	0	0	0	0	0	0	0	0	25.27100898261288	0	0	0
0.9218857753322802	-238.8348421946869	2020.299967752889	0	0	0	0	0	0	0	0	0	0	0	0	27.28210428703669	0	0	0
0.9229634908389258	-210.5276063273896	2087.477390331465	0	0	0	0	0	0	0	0	0	0	0	0	29.28409965860991	0	0	0
0.9240412063455714	-180.0268476220631	2151.360193682501	0	0	0	0	0	0	0	0	0	0	0	0	31.28916042455342	0	0	0
0.9251189218522171	-147.4681319048362	2211.46563158928	0	0	0	0	0	0	0	0	0	0	0	0	33.28427196394447	0	0	0
0.9261966373588627	-112.1591923986366	2267.454434617843	0	0	0	0	0	0	0	0	0	0	0	0	35.28751552755318	0	0	0
0.9272743528655083	-74.6278227270526	2319.106077277821	0	0	0	0	0	0	0	0	0	0	0	0	37.27742821957295	0	0	0
0.9283520683721539	-34.85462550741472	2366.545635597735	0	0	0	0	0	0	0	0	0	0	0	0	39.25735887280188	0	0	0
0.9294297838787995	6.766321583117062	2409.61542450017	0	0	0	0	0	0	0	0	0	0	0	0	41.21180445765732	0	0	0
0.9305074993854451	50.73175732446277	2447.967247619346	0	0	0	0	0	0	0	0	0	0	0	0	43.15247700585219	0	0	0
0.9315852148920907	96.74429737984858	2481.309952966751	0	0	0	0	0	0	0	0	0	0	0	0	45.06517978950307	0	0	0
0.9326629303987363	144.7989259937603	2509.580999368261	0	0	0	0	0	0	0	0	0	0	0	0	46.94960023501479	0	0	0
0.9337406459053819	194.7155629693901	2532.496106435823	0	0	0	0	0	0	0	0	0	0	0	0	48.79590408470331	0	0	0
0.9348183614120276	246.4428071113674	2549.886810677629	0	0	0	0	0	0	0	0	0	0	0	0	50.60067140203478	0	0	0
0.9358960769186732	299.2923608126579	2561.878146189052	0	0	0	0	0	0	0	0	0	0	0	0	52.34395016411686	0	0	0
0.9369737924253188	352.5881026312597	2568.871964139064	0	0	0	0	0	0	0	0	0	0	0	0	54.01079735758941	0	0	0
0.9380515079319643	405.1220961090724	2571.530251848521	0	0	0	0	0	0	0	0	0	0	0	0	55.5724880455352	0	0	0
0.9391292234386099	455.7952437471446	2570.744165300317	0	0	0	0	0	0	0	0	0	0	0	0	57.00743966069437	0	0	0
0.9402069389452555	504.2508890746818	2566.670500895415	0	0	0	0	0	0	0	0	0	0	0	0	58.30706573042348	0	0	0
0.9412846544519011	550.9619689026241	2558.650280281105	0	0	0	0	0	0	0	0	0	0	0	0	59.47783929121892	0	0	0
0.9423623699585467	595.6378232853401	2546.415594023447	0	0	0	0	0	0	0	0	0	0	0	0	60.50684280302072	0	0	0
0.9434400854651923	638.078820056754	2529.734856413244	0	0	0	0	0	0	0	0	0	0	0	0	61.38492802711809	0	0	0
0.9445178009718379	678.0903160554578	2508.053272723203	0	0	0	0	0	0	0	0	0	0	0	0	62.09828566610409	0	0	0
0.9455955164784835	715.2096295576752	2480.952287066063	0	0	0	0	0	0	0	0	0	0	0	0	62.6264209361017	0	0	0
0.9466732319851292	749.4512283895023	2447.520974125386	0	0	0	0	0	0	0	0	0	0	0	0	62.95804057751215	0	0	0
0.9477509474917748	780.9280228383186	2405.392913730806	0	0	0	0	0	0	0	0	0	0	0	0	63.06441518837624	0	0	0
0.9488286629984204	808.657609645453	2354.800731007402	0	0	0	0	0	0	0	0	0	0	0	0	62.91967359097958	0	0	0
0.949906378505066	830.6930151125263	2297.371611640137	0	0	0	0	0	0	0	0	0	0	0	0	62.48454362200766	0	0	0
